<svg width="1307" height="740" viewBox="0 0 1307 740" fill="none" xmlns="http://www.w3.org/2000/svg">
<path d="M559.103 444.549L556.696 455.735L554.131 467.757L530.582 577.38H492.093L515.616 467.757L518.206 455.735L520.613 444.549H559.103Z" fill="#EBEBEB"/>
<path d="M553.529 444.549C551.514 455.656 549.316 466.743 547.119 477.831L540.342 511.054L533.225 544.237L529.561 560.809L525.741 577.38L528.881 560.729L532.152 544.098L538.955 510.875L546.072 477.692C548.453 466.624 550.913 455.576 553.529 444.549Z" fill="#C7C7C7"/>
<path d="M556.695 455.736L554.131 467.757H515.615L518.206 455.736H556.695Z" fill="#C7C7C7"/>
<path d="M749.171 444.548L751.552 455.735L754.142 467.757L777.691 577.38H816.181L792.658 467.757L790.068 455.735L787.66 444.548H749.171Z" fill="#EBEBEB"/>
<path d="M754.874 444.548C756.889 455.656 759.087 466.743 761.285 477.831L768.062 511.054L775.179 544.237L778.842 560.808L782.662 577.38L779.522 560.729L776.251 544.098L769.448 510.875L762.331 477.692C759.924 466.624 757.464 455.576 754.874 444.548Z" fill="#C7C7C7"/>
<path d="M751.552 455.735H790.068L792.658 467.757H754.142L751.552 455.735Z" fill="#C7C7C7"/>
<path d="M557.691 413.71H527.182L530.976 392.091H553.897L557.691 413.71Z" fill="#C7C7C7"/>
<path d="M570.467 380.425C573.198 368.678 562.87 357.474 547.401 355.401C531.932 353.327 517.178 361.17 514.448 372.917C511.718 384.665 522.045 395.868 537.515 397.942C552.984 400.015 567.737 392.172 570.467 380.425Z" fill="#DBDBDB"/>
<path d="M563.537 380.447C566.293 371.615 559.1 362.759 547.47 360.667C535.841 358.574 524.179 364.037 521.424 372.868C518.668 381.699 525.861 390.555 537.49 392.648C549.12 394.741 560.781 389.278 563.537 380.447Z" fill="white"/>
<path d="M560.517 375.698C560.125 371.685 557.456 367.989 553.453 365.624C549.449 363.24 544.164 362.147 538.905 362.723C533.829 363.299 529.223 365.584 526.397 368.903C523.519 372.221 522.551 376.573 524.121 380.745C525.377 384.183 528.517 387.144 532.573 388.872C536.602 390.621 541.443 391.157 545.812 390.422C550.208 389.727 554.185 387.839 556.907 385.256C559.654 382.693 561.302 379.434 561.486 376.096C561.486 375.937 561.433 375.798 561.302 375.798C561.198 375.798 561.119 375.917 561.093 376.076C561.015 377.427 560.622 378.758 560.073 380.03C559.471 381.302 558.66 382.494 557.692 383.587C556.671 384.68 555.494 385.653 554.159 386.547C552.799 387.402 551.307 388.137 549.659 388.753C545.08 390.422 539.611 390.541 534.901 389.011C530.192 387.521 526.424 384.421 524.88 380.666C523.231 376.692 524.043 372.44 526.764 369.161C529.459 365.883 533.986 363.617 538.931 363.081C545.76 362.326 552.668 364.233 556.854 368.505C557.875 369.559 558.66 370.711 559.262 371.923C559.837 373.135 560.203 374.427 560.387 375.738C560.387 375.778 560.439 375.798 560.465 375.778C560.517 375.798 560.517 375.758 560.517 375.698Z" fill="#EBEBEB"/>
<path d="M557.98 375.718C557.587 372.261 555.259 369.141 551.857 367.115C548.43 365.088 543.929 364.134 539.429 364.611C535.085 365.068 531.082 366.995 528.622 369.857C526.11 372.698 525.221 376.473 526.529 380.11C527.576 383.11 530.323 385.713 533.855 387.203C537.388 388.713 541.6 389.17 545.394 388.515C549.214 387.879 552.642 386.249 554.997 383.984C557.378 381.739 558.791 378.957 558.948 376.056C558.948 375.917 558.896 375.798 558.765 375.798C558.66 375.798 558.582 375.897 558.556 376.036C558.242 380.765 554.264 384.918 548.691 386.985C544.766 388.455 540.004 388.574 535.922 387.263C531.841 385.971 528.544 383.269 527.262 380.03C525.875 376.593 526.634 372.917 528.988 370.115C531.343 367.313 535.268 365.406 539.481 364.988C545.316 364.412 551.125 365.982 554.762 369.598C555.625 370.492 556.305 371.466 556.855 372.499C557.378 373.533 557.692 374.625 557.875 375.758C557.875 375.798 557.928 375.798 557.954 375.798C557.98 375.798 558.006 375.758 557.98 375.718Z" fill="#EBEBEB"/>
<path d="M555.441 375.738C555.049 372.857 553.086 370.294 550.234 368.605C547.382 366.936 543.693 366.141 539.925 366.499C536.314 366.836 532.913 368.426 530.793 370.791C528.621 373.155 527.81 376.354 528.883 379.474C529.72 382.037 532.075 384.282 535.111 385.554C538.12 386.846 541.73 387.223 544.975 386.627C548.219 386.071 551.124 384.66 553.086 382.732C555.075 380.825 556.252 378.48 556.409 376.016C556.409 375.897 556.331 375.798 556.226 375.798C556.122 375.798 556.043 375.877 556.017 375.997C555.703 379.99 552.38 383.428 547.696 385.216C544.399 386.468 540.37 386.607 536.916 385.514C533.462 384.441 530.662 382.136 529.616 379.374C528.491 376.454 529.171 373.374 531.186 371.049C533.2 368.724 536.497 367.174 539.977 366.876C542.411 366.677 544.792 366.876 546.964 367.512C549.135 368.148 551.124 369.201 552.641 370.671C553.374 371.407 553.95 372.221 554.421 373.056C554.866 373.91 555.153 374.824 555.337 375.758C555.363 375.778 555.389 375.798 555.415 375.778C555.441 375.798 555.467 375.758 555.441 375.738Z" fill="#EBEBEB"/>
<path d="M552.93 375.758C552.537 373.433 550.941 371.446 548.665 370.115C546.388 368.803 543.51 368.167 540.475 368.386C537.597 368.605 534.823 369.837 533.018 371.744C531.212 373.632 530.48 376.255 531.291 378.838C531.945 380.964 533.881 382.851 536.393 383.885C538.879 384.938 541.888 385.236 544.557 384.719C547.225 384.242 549.58 383.05 551.176 381.461C552.773 379.871 553.741 377.983 553.898 375.976C553.898 375.877 553.819 375.798 553.715 375.798C553.61 375.798 553.531 375.877 553.505 375.957C553.217 379.195 550.496 381.937 546.755 383.428C544.112 384.481 540.789 384.64 537.963 383.746C535.137 382.871 532.834 380.964 532.023 378.718C531.16 376.334 531.762 373.811 533.436 371.983C535.111 370.135 537.806 368.942 540.553 368.744C542.49 368.624 544.347 368.803 546.048 369.28C547.749 369.757 549.345 370.572 550.575 371.724C551.176 372.3 551.621 372.936 552.04 373.612C552.406 374.287 552.668 375.003 552.851 375.778C552.851 375.798 552.903 375.817 552.93 375.798C552.93 375.798 552.93 375.778 552.93 375.758Z" fill="#EBEBEB"/>
<path d="M780.439 413.71H749.903L753.697 392.091H776.645L780.439 413.71Z" fill="#C7C7C7"/>
<path d="M793.347 379.902C795.717 368.109 785.05 357.09 769.521 355.29C753.992 353.49 739.482 361.591 737.111 373.383C734.741 385.176 745.408 396.195 760.937 397.995C776.466 399.795 790.976 391.694 793.347 379.902Z" fill="#DBDBDB"/>
<path d="M786.62 379.14C788.422 370.168 780.305 361.785 768.491 360.417C756.676 359.048 745.638 365.212 743.835 374.184C742.033 383.156 750.15 391.538 761.964 392.907C773.779 394.276 784.818 388.112 786.62 379.14Z" fill="white"/>
<path d="M783.265 375.698C782.873 371.685 780.204 367.989 776.201 365.624C772.197 363.24 766.912 362.147 761.653 362.723C756.577 363.299 751.971 365.584 749.146 368.903C746.267 372.221 745.299 376.573 746.869 380.745C748.125 384.183 751.265 387.144 755.321 388.872C759.35 390.621 764.191 391.157 768.56 390.422C772.956 389.727 776.933 387.839 779.681 385.256C782.428 382.693 784.077 379.434 784.26 376.096C784.26 375.937 784.207 375.798 784.077 375.798C783.972 375.798 783.893 375.917 783.867 376.076C783.789 377.427 783.396 378.758 782.847 380.03C782.245 381.302 781.434 382.494 780.466 383.587C779.445 384.68 778.268 385.653 776.933 386.547C775.573 387.402 774.081 388.137 772.433 388.753C767.854 390.422 762.385 390.541 757.676 389.011C752.966 387.521 749.198 384.421 747.654 380.666C746.006 376.692 746.817 372.44 749.538 369.161C752.233 365.883 756.76 363.617 761.705 363.081C768.534 362.326 775.442 364.233 779.628 368.505C780.649 369.559 781.434 370.711 782.036 371.923C782.611 373.135 782.978 374.427 783.161 375.738C783.161 375.778 783.213 375.798 783.239 375.778C783.265 375.798 783.265 375.758 783.265 375.698Z" fill="#EBEBEB"/>
<path d="M780.728 375.718C780.336 372.261 778.007 369.141 774.605 367.115C771.178 365.088 766.677 364.134 762.177 364.611C757.833 365.068 753.83 366.995 751.37 369.857C748.858 372.698 747.969 376.473 749.277 380.11C750.324 383.11 753.071 385.713 756.603 387.203C760.136 388.713 764.348 389.17 768.142 388.515C771.963 387.879 775.39 386.249 777.745 383.984C780.126 381.739 781.539 378.957 781.696 376.056C781.696 375.917 781.644 375.798 781.513 375.798C781.408 375.798 781.304 375.897 781.304 376.036C780.99 380.765 777.012 384.918 771.439 386.985C767.514 388.455 762.752 388.574 758.67 387.263C754.589 385.971 751.292 383.269 750.01 380.03C748.623 376.593 749.355 372.917 751.737 370.115C754.091 367.313 758.016 365.406 762.229 364.988C768.064 364.412 773.873 365.982 777.51 369.598C778.373 370.492 779.053 371.466 779.603 372.499C780.126 373.533 780.44 374.625 780.623 375.758C780.623 375.798 780.676 375.798 780.702 375.798C780.728 375.798 780.728 375.758 780.728 375.718Z" fill="#EBEBEB"/>
<path d="M778.189 375.738C777.797 372.857 775.834 370.294 772.982 368.605C770.13 366.936 766.441 366.141 762.673 366.499C759.062 366.836 755.687 368.426 753.541 370.791C751.369 373.155 750.558 376.354 751.631 379.474C752.468 382.037 754.823 384.282 757.832 385.554C760.841 386.846 764.452 387.223 767.697 386.627C770.941 386.071 773.846 384.66 775.808 382.732C777.797 380.825 778.974 378.48 779.131 376.016C779.131 375.897 779.053 375.798 778.948 375.798C778.843 375.798 778.765 375.877 778.739 375.997C778.425 379.99 775.102 383.428 770.418 385.216C767.121 386.468 763.092 386.607 759.638 385.514C756.184 384.441 753.384 382.136 752.338 379.374C751.213 376.454 751.893 373.374 753.908 371.049C755.922 368.724 759.219 367.174 762.699 366.876C765.133 366.677 767.514 366.876 769.685 367.512C771.857 368.148 773.846 369.201 775.363 370.671C776.096 371.407 776.672 372.221 777.143 373.056C777.587 373.91 777.875 374.824 778.058 375.758C778.085 375.778 778.111 375.798 778.137 375.778C778.189 375.798 778.189 375.758 778.189 375.738Z" fill="#EBEBEB"/>
<path d="M775.651 375.758C775.259 373.433 773.663 371.446 771.386 370.115C769.11 368.803 766.232 368.167 763.196 368.386C760.318 368.605 757.545 369.837 755.739 371.744C753.934 373.632 753.201 376.255 754.012 378.838C754.666 380.964 756.603 382.851 759.115 383.885C761.6 384.938 764.609 385.236 767.278 384.719C769.947 384.242 772.302 383.05 773.898 381.461C775.494 379.871 776.462 377.983 776.619 375.976C776.619 375.877 776.541 375.798 776.436 375.798C776.332 375.798 776.253 375.877 776.227 375.957C775.939 379.195 773.218 381.937 769.476 383.428C766.833 384.481 763.51 384.64 760.685 383.746C757.859 382.871 755.556 380.964 754.745 378.718C753.882 376.334 754.483 373.811 756.158 371.983C757.832 370.135 760.528 368.942 763.275 368.744C765.211 368.624 767.069 368.803 768.77 369.28C770.47 369.757 772.067 370.572 773.296 371.724C773.898 372.3 774.343 372.936 774.762 373.612C775.128 374.287 775.39 375.003 775.573 375.778C775.599 375.798 775.625 375.817 775.651 375.798C775.651 375.798 775.677 375.778 775.651 375.758Z" fill="#EBEBEB"/>
<path d="M845.931 402.702H462.317V458.418H845.931V402.702Z" fill="#DBDBDB"/>
<path d="M541.181 402.702L513.341 458.418H463.783L491.623 402.702H541.181Z" fill="#EBEBEB"/>
<path d="M642.73 402.702L614.89 458.418H565.332L593.172 402.702H642.73Z" fill="#EBEBEB"/>
<path d="M744.279 402.702L716.412 458.418H666.881L694.721 402.702H744.279Z" fill="#EBEBEB"/>
<path d="M845.828 402.702L817.987 458.418H768.43L796.27 402.702H845.828Z" fill="#EBEBEB"/>
<path d="M838.186 509.941H470.089V545.21H838.186V509.941Z" fill="#DBDBDB"/>
<path d="M545.733 509.941L519.044 545.19H471.501L498.216 509.941H545.733Z" fill="#EBEBEB"/>
<path d="M643.199 509.941L616.484 545.19H568.915L595.63 509.941H643.199Z" fill="#EBEBEB"/>
<path d="M740.614 509.941L713.899 545.19H666.356L693.072 509.941H740.614Z" fill="#EBEBEB"/>
<path d="M838.055 509.941L811.34 545.19H763.797L790.512 509.941H838.055Z" fill="#EBEBEB"/>
<path d="M1284.01 60.9019H987.864C987.864 60.9019 1017.22 0 1062.41 0C1107.6 0 1121.75 42.0451 1121.75 42.0451C1121.75 42.0451 1152.24 19.2144 1177.28 19.2144C1202.32 19.2144 1224.09 49.3971 1224.09 49.3971C1224.09 49.3971 1259.52 33.1433 1284.01 60.9019Z" fill="#EBEBEB"/>
<path d="M382.956 35.0176H244.566C244.566 35.0176 275.494 1 299.854 1C324.214 1 331.41 23.6917 331.41 23.6917C331.41 23.6917 348.601 13.1009 364.536 14.9886C380.47 16.8762 382.956 35.0176 382.956 35.0176Z" fill="#EBEBEB"/>
<path d="M1176.87 239.469H1038.48C1038.48 239.469 1069.41 205.451 1093.77 205.451C1118.13 205.451 1125.33 228.143 1125.33 228.143C1125.33 228.143 1142.52 217.552 1158.45 219.44C1174.39 221.328 1176.87 239.469 1176.87 239.469Z" fill="#EBEBEB"/>
<path d="M306.448 120.28H36.8643C36.8643 120.28 73.7839 57.6895 113.268 53.7751C152.752 49.8607 171.643 100.271 171.643 100.271C171.643 100.271 197.102 82.4476 217.145 82.4476C237.188 82.4476 252.626 105.914 252.626 105.914C252.626 105.914 292.711 89.8393 306.448 120.28Z" fill="#EBEBEB"/>
<path d="M93.959 577.877L232.689 577.4L371.419 577.221L648.905 576.883L926.391 577.221L1065.12 577.4L1203.85 577.877L1065.12 578.374L926.391 578.532L648.905 578.87L371.419 578.532L232.689 578.354L93.959 577.877Z" fill="#DBDBDB"/>
<path d="M654.137 734.473C957.735 734.473 1203.85 712.687 1203.85 685.811C1203.85 658.936 957.735 637.149 654.137 637.149C350.539 637.149 104.424 658.936 104.424 685.811C104.424 712.687 350.539 734.473 654.137 734.473Z" fill="#EBEBEB"/>
<path d="M1306.86 739.818H1221.38C1159.26 739.818 1121.3 707.211 1114.44 648.018C1111.07 618.849 1109 583.52 1106.83 546.104C1100.13 431.215 1090.95 273.864 1032.05 273.864H964.356V261.942H1032.05C1105.94 261.942 1114.36 406.139 1122.5 545.588C1124.67 582.864 1126.74 618.074 1130.06 646.985C1134.33 683.903 1153.64 727.896 1221.35 727.896H1306.84V739.818H1306.86Z" fill="#FEFD00"/>
<path opacity="0.2" d="M1014.07 261.922L1010.72 273.844H964.356V261.922H1014.07Z" fill="#FFC727"/>
<path d="M836.773 196.529H809.404V341.76H836.773V196.529Z" fill="#FEFD00"/>
<path d="M809.43 207.259H705.369V329.54H809.43V207.259Z" fill="#FEFD00"/>
<path opacity="0.2" d="M809.403 207.279V329.56H783.551L771.96 207.279H809.403Z" fill="#FFC727"/>
<path d="M705.37 247.496H625.539C619.835 247.496 615.229 243.979 615.229 239.667V237.064C615.229 232.733 619.861 229.236 625.539 229.236H705.37V247.496Z" fill="#DBDBDB"/>
<path d="M705.344 229.216H677.32V247.476H705.344V229.216Z" fill="#A6A6A6"/>
<path d="M705.37 307.603H625.539C619.835 307.603 615.229 304.086 615.229 299.774V297.171C615.229 292.84 619.861 289.343 625.539 289.343H705.37V307.603Z" fill="#DBDBDB"/>
<path d="M705.344 289.323H677.32V307.583H705.344V289.323Z" fill="#A6A6A6"/>
<path d="M998.503 256.736H917.207V281.116H998.503V256.736Z" fill="#FEFD00"/>
<path d="M998.503 256.756H917.207V281.136H998.503V256.756Z" fill="#FEFD00"/>
<path opacity="0.2" d="M945.754 256.756L943.085 281.136H917.207V256.756H945.754Z" fill="#FFC727"/>
<path d="M901.115 324.95H836.773V211.869H901.115C910.011 211.869 917.207 217.333 917.207 224.089V312.73C917.207 319.466 909.985 324.95 901.115 324.95Z" fill="#FEFD00"/>
<path opacity="0.2" d="M870.998 211.869L859.433 324.95H836.773V211.869H870.998Z" fill="#FFC727"/>
<g opacity="0.2">
<path d="M865.006 234.72H859.878V302.079H865.006V234.72Z" fill="#FFC727"/>
<path d="M879.554 234.72H874.426V302.079H879.554V234.72Z" fill="#FFC727"/>
<path d="M894.102 234.72H888.974V302.079H894.102V234.72Z" fill="#FFC727"/>
</g>
<path d="M85.483 739.818H0V727.896H85.483C153.226 727.896 172.51 683.884 176.775 646.985C180.124 618.074 182.165 582.844 184.337 545.568C192.474 406.12 200.899 261.922 274.791 261.922H342.481V273.844H274.791C215.918 273.844 206.734 431.196 200.01 546.085C197.838 583.5 195.771 618.829 192.396 647.999C185.566 707.211 147.6 739.818 85.483 739.818Z" fill="#FEFD00"/>
<path opacity="0.2" d="M342.507 261.922V273.844H288.502L285.152 261.922H342.507Z" fill="#FFC727"/>
<path d="M577.434 344.897H606.269V191.937H577.434V344.897Z" fill="#FEFD00"/>
<path d="M577.421 199.192H467.84V336.058H577.421V199.192Z" fill="#FEFD00"/>
<path opacity="0.2" d="M577.422 199.192V336.058H550.21L537.99 199.192H577.422Z" fill="#FFC727"/>
<path d="M301.846 280.071H383.143V255.69H301.846V280.071Z" fill="#FEFD00"/>
<path d="M383.142 255.703H301.846V280.084H383.142V255.703Z" fill="#FEFD00"/>
<path opacity="0.2" d="M354.596 280.064L357.265 255.703H383.142V280.064H354.596Z" fill="#FFC727"/>
<path d="M399.233 208.869H467.84V327.97H399.233C390.337 327.97 383.142 322.506 383.142 315.75V221.089C383.142 214.333 390.337 208.869 399.233 208.869Z" fill="#FEFD00"/>
<path opacity="0.2" d="M431.783 327.95L444.003 208.869H467.839V327.95H431.783Z" fill="#FFC727"/>
<g opacity="0.2">
<path d="M438.097 303.877H443.514V232.941H438.097V303.877Z" fill="#FFC727"/>
<path d="M422.79 303.877H428.206V232.941H422.79V303.877Z" fill="#FFC727"/>
<path d="M407.457 303.877H412.873V232.941H407.457V303.877Z" fill="#FFC727"/>
</g>
<path d="M654.556 166.347C653.824 166.347 653.248 165.91 653.248 165.354V137.397C653.248 136.84 653.824 136.403 654.556 136.403C655.289 136.403 655.865 136.84 655.865 137.397V165.354C655.865 165.91 655.289 166.347 654.556 166.347Z" fill="#263238"/>
<path d="M587.938 179.74C587.493 179.74 587.048 179.561 586.813 179.243L568.392 155.041C568.026 154.564 568.235 153.968 568.863 153.69C569.491 153.412 570.276 153.571 570.642 154.048L589.063 178.249C589.429 178.726 589.22 179.322 588.592 179.6C588.383 179.7 588.147 179.74 587.938 179.74Z" fill="#263238"/>
<path d="M568.785 379.077C568.576 379.077 568.34 379.037 568.131 378.938C567.503 378.659 567.293 378.063 567.66 377.586L586.08 353.385C586.447 352.908 587.232 352.749 587.86 353.027C588.488 353.305 588.697 353.901 588.331 354.378L569.91 378.58C569.674 378.898 569.23 379.077 568.785 379.077Z" fill="#263238"/>
<path d="M653.718 396.522C652.986 396.522 652.41 396.085 652.41 395.529V367.572C652.41 367.015 652.986 366.578 653.718 366.578C654.451 366.578 655.027 367.015 655.027 367.572V395.529C655.027 396.085 654.425 396.522 653.718 396.522Z" fill="#263238"/>
<path d="M738.757 379.394C738.313 379.394 737.868 379.215 737.632 378.898L719.238 354.696C718.872 354.219 719.081 353.603 719.709 353.345C720.337 353.066 721.122 353.225 721.488 353.702L739.882 377.904C740.249 378.381 740.039 378.977 739.412 379.255C739.202 379.355 738.967 379.394 738.757 379.394Z" fill="#263238"/>
<path d="M721.068 180.058C720.833 180.058 720.623 180.018 720.414 179.919C719.786 179.64 719.577 179.044 719.943 178.567L738.364 154.366C738.73 153.889 739.515 153.73 740.143 154.008C740.771 154.286 740.98 154.882 740.614 155.359L722.193 179.561C721.958 179.879 721.513 180.058 721.068 180.058Z" fill="#263238"/>
</svg>
