<svg width="323" height="298" viewBox="0 0 323 298" fill="none" xmlns="http://www.w3.org/2000/svg">
<path d="M322.654 43.4294L301.796 243.92C300.795 258.521 292.034 260.273 276.683 258.437L276.432 242.084L284.108 242.919L305.133 41.6774L81.9489 18.3994L79.0287 46.5999L61.2575 47.4343L64.5114 16.5638C65.5126 6.88553 74.1896 -0.122788 83.8679 0.878413L307.052 24.2398C316.647 25.0741 323.656 33.7511 322.654 43.4294ZM259.495 64.6215L268.84 268.7C269.257 278.378 261.748 286.638 252.07 287.055L27.9675 297.317C18.2892 297.734 10.0293 290.225 9.61218 280.547L0.26755 76.4691C-0.149617 66.7908 7.35947 58.5309 17.0377 58.1138L241.14 47.8513C250.818 47.4342 259.078 54.9433 259.495 64.6215ZM27.0497 277.877L251.152 267.615L241.891 65.4558L17.7886 75.7182L27.0497 277.877ZM239.638 207.376C239.388 201.119 236.885 195.195 232.63 190.606L216.861 173.586C211.354 168.329 202.677 168.746 197.671 174.503L169.137 207.543L107.229 131.201C101.89 124.61 91.7941 124.694 86.6212 131.368L38.2298 195.195C34.4753 200.117 32.6397 206.208 32.89 212.382L35.4765 268.783L242.058 259.272L239.638 207.376ZM203.428 137.709C216.777 137.125 227.123 125.778 226.456 112.429C225.872 99.0795 214.525 88.7338 201.175 89.4013C187.826 89.9853 177.48 101.332 178.148 114.682C178.732 127.948 189.995 138.293 203.428 137.709Z" fill="#EDEDED"/>
</svg>
