<svg width="227" height="216" viewBox="0 0 227 216" fill="none" xmlns="http://www.w3.org/2000/svg">
<path d="M14.7232 0.0663267L0.376544 15.2481L33.0114 46.0878L24.5249 46.3278C21.4416 46.415 18.5193 47.7235 16.4008 49.9653C14.2823 52.2071 13.1411 55.1987 13.2283 58.282L16.5162 174.536C16.6034 177.619 17.9118 180.541 20.1537 182.66C22.3955 184.778 25.3871 185.92 28.4703 185.832L167.975 181.887C170.3 181.821 172.482 180.829 174.193 179.617L212.324 215.537L226.671 200.355M222.321 46.5511L177.134 94.3678L175.984 53.679C175.896 50.5957 174.588 47.6734 172.346 45.5549C170.104 43.4364 167.113 42.2952 164.029 42.3824L92.1846 44.4143L225.832 170.71L222.321 46.5511Z" fill="#EDEDED"/>
</svg>
