<svg width="834" height="792" viewBox="0 0 834 792" fill="none" xmlns="http://www.w3.org/2000/svg">
<path d="M756.324 722.25C765.434 716.387 773.696 709.441 780.642 701.034C832.29 638.508 831.767 550.292 828.213 474.272C824.028 384.541 808.153 294.756 762.259 215.614C718.025 139.323 651.367 74.5233 567.95 39.8504C544.931 30.2892 520.902 23.0913 496.331 18.3828C450.979 9.68756 403.894 11.5096 359.66 24.787C342.775 29.8563 326.304 36.2064 310.267 43.3682C200.493 92.3288 185.249 193.227 142.567 294.124C112.35 365.563 41.2902 412.232 11.1634 483.761C-22.5894 563.858 31.4945 651.406 100.516 694.378C116.319 704.21 133.222 712.328 150.757 718.786C314.759 779.148 499.759 797.657 670.489 753.729C699.209 746.333 731.05 738.486 756.324 722.25Z" fill="#FEFD00"/>
<path opacity="0.7" d="M756.324 722.25C765.434 716.387 773.696 709.441 780.642 701.034C832.29 638.508 831.767 550.292 828.213 474.272C824.028 384.541 808.153 294.756 762.259 215.614C718.025 139.323 651.367 74.5233 567.95 39.8504C544.931 30.2892 520.902 23.0913 496.331 18.3828C450.979 9.68756 403.894 11.5096 359.66 24.787C342.775 29.8563 326.304 36.2064 310.267 43.3682C200.493 92.3288 185.249 193.227 142.567 294.124C112.35 365.563 41.2902 412.232 11.1634 483.761C-22.5894 563.858 31.4945 651.406 100.516 694.378C116.319 704.21 133.222 712.328 150.757 718.786C314.759 779.148 499.759 797.657 670.489 753.729C699.209 746.333 731.05 738.486 756.324 722.25Z" fill="white"/>
<path d="M12.877 790.513H833.156" stroke="#7B7B7B" stroke-miterlimit="10" stroke-linecap="round" stroke-linejoin="round"/>
<path d="M615.078 53.1278V737.403C615.078 757.824 598.518 774.385 578.096 774.385H261.007C240.586 774.385 224.025 757.824 224.025 737.403V53.1278C224.025 32.6884 240.586 16.1458 261.007 16.1458H578.096C598.518 16.1458 615.078 32.6884 615.078 53.1278Z" fill="white"/>
<path d="M615.078 57.0064C615.078 47.2287 611.633 38.2448 605.896 31.2092C586.341 40.6802 558.379 60.8129 522.154 102.936C444.294 193.515 420.463 412.791 328.297 508.133C288.843 548.957 252.601 574.033 224.025 589.385V733.506C224.025 756.074 242.318 774.385 264.904 774.385H551.596C553.472 772.058 555.312 769.659 557.116 767.169C578.638 737.385 598.409 712.4 615.078 692.447V57.0064Z" fill="#EBEBEB"/>
<path d="M224.025 57.0063V231.886C255.848 217.689 294.363 190.701 321.928 139.485C349.872 87.6022 385.826 45.3344 414.69 16.1277H264.886C242.336 16.1457 224.025 34.4383 224.025 57.0063Z" fill="#D6D6D6"/>
<path d="M625.596 43.0976V66.3872H632.83V132.576H625.596V147.621H632.83V213.81H625.596V228.855H632.83V295.044H625.596V747.433C625.596 771.228 606.293 790.531 582.498 790.531H256.624C232.829 790.531 213.526 771.228 213.526 747.433V185.523H208.349V119.335H213.526V43.0976C213.526 19.3028 232.829 0 256.624 0H582.498C606.293 0 625.596 19.3028 625.596 43.0976ZM512.918 16.1458L500.2 35.0698C496.375 40.7524 489.989 44.1619 483.152 44.1619H355.988C349.151 44.1619 342.747 40.7524 338.94 35.0698L326.222 16.1458H267.141C243.346 16.1458 224.043 35.4486 224.043 59.2434V731.288C224.043 755.082 243.346 774.385 267.141 774.385H571.999C595.794 774.385 615.097 755.082 615.097 731.288V59.2434C615.097 35.4486 595.794 16.1458 571.999 16.1458H512.918Z" fill="#7B7B7B"/>
<path d="M257.435 84.283L229.257 174.014V199.631C229.257 204.88 227.273 209.679 224.025 213.305V84.283H257.435Z" fill="#7B7B7B" stroke="#7B7B7B" stroke-miterlimit="10" stroke-linecap="round" stroke-linejoin="round"/>
<path d="M257.797 84.283L229.745 173.834H229.69V199.631C229.69 210.942 238.873 220.124 250.184 220.124H250.472C261.784 220.124 270.966 210.942 270.966 199.631V174.014L292.885 84.283H257.797Z" fill="#7B7B7B" stroke="#7B7B7B" stroke-miterlimit="10" stroke-linecap="round" stroke-linejoin="round"/>
<path d="M293.245 84.283L271.435 173.834H271.381V199.631C271.381 210.942 280.563 220.124 291.874 220.124H292.163C303.474 220.124 312.656 210.942 312.656 199.631V174.014L328.315 84.283H293.245Z" fill="#7B7B7B" stroke="#7B7B7B" stroke-miterlimit="10" stroke-linecap="round" stroke-linejoin="round"/>
<path d="M328.693 84.283L313.125 173.834H313.089V199.631C313.089 210.942 322.271 220.124 333.582 220.124H333.871C345.182 220.124 354.364 210.942 354.364 199.631V174.014L363.781 84.283H328.693Z" fill="#7B7B7B" stroke="#7B7B7B" stroke-miterlimit="10" stroke-linecap="round" stroke-linejoin="round"/>
<path d="M364.124 84.283L354.797 173.834H354.779V199.631C354.779 210.942 363.962 220.124 375.273 220.124H375.561C386.872 220.124 396.055 210.942 396.055 199.631V174.014L399.212 84.283H364.124Z" fill="#7B7B7B" stroke="#7B7B7B" stroke-miterlimit="10" stroke-linecap="round" stroke-linejoin="round"/>
<path d="M434.642 84.283H399.555L396.47 173.834V199.631C396.47 210.942 405.652 220.124 416.963 220.124H417.252C428.563 220.124 437.745 210.942 437.745 199.631V173.834L434.642 84.283Z" fill="#7B7B7B" stroke="#7B7B7B" stroke-miterlimit="10" stroke-linecap="round" stroke-linejoin="round"/>
<path d="M470.091 84.283H435.003L438.16 174.014V199.631C438.16 210.942 447.342 220.124 458.653 220.124H458.942C470.253 220.124 479.435 210.942 479.435 199.631V173.834H479.417L470.091 84.283Z" fill="#7B7B7B" stroke="#7B7B7B" stroke-miterlimit="10" stroke-linecap="round" stroke-linejoin="round"/>
<path d="M505.521 84.283H470.434L479.85 174.014V199.631C479.85 210.942 489.033 220.124 500.344 220.124H500.633C511.944 220.124 521.126 210.942 521.126 199.631V173.834H521.09L505.521 84.283Z" fill="#7B7B7B" stroke="#7B7B7B" stroke-miterlimit="10" stroke-linecap="round" stroke-linejoin="round"/>
<path d="M540.971 84.283H505.883L521.542 174.014V199.631C521.542 210.942 530.724 220.124 542.035 220.124H542.324C553.635 220.124 562.817 210.942 562.817 199.631V173.834H562.763L540.971 84.283Z" fill="#7B7B7B" stroke="#7B7B7B" stroke-miterlimit="10" stroke-linecap="round" stroke-linejoin="round"/>
<path d="M576.4 84.283H541.312L563.231 174.014V199.631C563.231 210.942 572.413 220.124 583.725 220.124H584.013C595.324 220.124 604.507 210.942 604.507 199.631V173.834H604.452L576.4 84.283Z" fill="#7B7B7B" stroke="#7B7B7B" stroke-miterlimit="10" stroke-linecap="round" stroke-linejoin="round"/>
<path d="M615.079 92.7077V217.31C609.017 213.756 604.94 207.171 604.94 199.631V174.014L576.762 84.283H611.849L615.079 92.7077Z" fill="#7B7B7B" stroke="#7B7B7B" stroke-miterlimit="10" stroke-linecap="round" stroke-linejoin="round"/>
<path d="M229.276 148.145H188L222.366 58.4136H257.436L229.276 148.145Z" fill="#FEFD00" stroke="#7B7B7B" stroke-miterlimit="10" stroke-linecap="round" stroke-linejoin="round"/>
<path d="M208.782 194.255H208.493C197.182 194.255 188 185.072 188 173.761V147.964H229.276V173.761C229.276 185.09 220.093 194.255 208.782 194.255Z" fill="#FEFD00" stroke="#7B7B7B" stroke-miterlimit="10" stroke-linecap="round" stroke-linejoin="round"/>
<path d="M270.966 148.145H229.69L257.797 58.4136H292.885L270.966 148.145Z" fill="white" stroke="#7B7B7B" stroke-miterlimit="10" stroke-linecap="round" stroke-linejoin="round"/>
<path d="M250.472 194.255H250.184C238.873 194.255 229.69 185.072 229.69 173.761V147.964H270.966V173.761C270.966 185.09 261.784 194.255 250.472 194.255Z" fill="white" stroke="#7B7B7B" stroke-miterlimit="10" stroke-linecap="round" stroke-linejoin="round"/>
<path d="M312.656 148.145H271.381L293.245 58.4136H328.333L312.656 148.145Z" fill="#FEFD00" stroke="#7B7B7B" stroke-miterlimit="10" stroke-linecap="round" stroke-linejoin="round"/>
<path d="M292.163 194.255H291.874C280.563 194.255 271.381 185.072 271.381 173.761V147.964H312.656V173.761C312.656 185.09 303.492 194.255 292.163 194.255Z" fill="#FEFD00" stroke="#7B7B7B" stroke-miterlimit="10" stroke-linecap="round" stroke-linejoin="round"/>
<path d="M354.346 148.145H313.089L328.693 58.4136H363.763L354.346 148.145Z" fill="white" stroke="#7B7B7B" stroke-miterlimit="10" stroke-linecap="round" stroke-linejoin="round"/>
<path d="M333.853 194.255H333.565C322.254 194.255 313.071 185.072 313.071 173.761V147.964H354.347V173.761C354.347 185.09 345.182 194.255 333.853 194.255Z" fill="white" stroke="#7B7B7B" stroke-miterlimit="10" stroke-linecap="round" stroke-linejoin="round"/>
<path d="M396.056 148.145H354.78L364.125 58.4136H399.213L396.056 148.145Z" fill="#FEFD00" stroke="#7B7B7B" stroke-miterlimit="10" stroke-linecap="round" stroke-linejoin="round"/>
<path d="M375.562 194.255H375.274C363.963 194.255 354.78 185.072 354.78 173.761V147.964H396.056V173.761C396.056 185.09 386.873 194.255 375.562 194.255Z" fill="#FEFD00" stroke="#7B7B7B" stroke-miterlimit="10" stroke-linecap="round" stroke-linejoin="round"/>
<path d="M437.746 148.145H396.471L399.574 58.4136H434.643L437.746 148.145Z" fill="white" stroke="#7B7B7B" stroke-miterlimit="10" stroke-linecap="round" stroke-linejoin="round"/>
<path d="M417.253 194.255H416.964C405.653 194.255 396.471 185.072 396.471 173.761V147.964H437.746V173.761C437.746 185.09 428.564 194.255 417.253 194.255Z" fill="white" stroke="#7B7B7B" stroke-miterlimit="10" stroke-linecap="round" stroke-linejoin="round"/>
<path d="M479.436 148.145H438.161L435.004 58.4136H470.092L479.436 148.145Z" fill="#FEFD00" stroke="#7B7B7B" stroke-miterlimit="10" stroke-linecap="round" stroke-linejoin="round"/>
<path d="M458.943 194.255H458.655C447.343 194.255 438.161 185.072 438.161 173.761V147.964H479.437V173.761C479.437 185.09 470.254 194.255 458.943 194.255Z" fill="#FEFD00" stroke="#7B7B7B" stroke-miterlimit="10" stroke-linecap="round" stroke-linejoin="round"/>
<path d="M521.127 148.145H479.869L470.452 58.4136H505.522L521.127 148.145Z" fill="white" stroke="#7B7B7B" stroke-miterlimit="10" stroke-linecap="round" stroke-linejoin="round"/>
<path d="M500.633 194.255H500.344C489.033 194.255 479.851 185.072 479.851 173.761V147.964H521.126V173.761C521.126 185.09 511.962 194.255 500.633 194.255Z" fill="white" stroke="#7B7B7B" stroke-miterlimit="10" stroke-linecap="round" stroke-linejoin="round"/>
<path d="M562.835 148.145H521.56L505.883 58.4136H540.971L562.835 148.145Z" fill="#FEFD00" stroke="#7B7B7B" stroke-miterlimit="10" stroke-linecap="round" stroke-linejoin="round"/>
<path d="M542.342 194.255H542.053C530.742 194.255 521.56 185.072 521.56 173.761V147.964H562.835V173.761C562.835 185.09 553.653 194.255 542.342 194.255Z" fill="#FEFD00" stroke="#7B7B7B" stroke-miterlimit="10" stroke-linecap="round" stroke-linejoin="round"/>
<path d="M604.525 148.145H563.25L541.331 58.4136H576.401L604.525 148.145Z" fill="white" stroke="#7B7B7B" stroke-miterlimit="10" stroke-linecap="round" stroke-linejoin="round"/>
<path d="M584.032 194.255H583.743C572.432 194.255 563.25 185.072 563.25 173.761V147.964H604.525V173.761C604.525 185.09 595.343 194.255 584.032 194.255Z" fill="white" stroke="#7B7B7B" stroke-miterlimit="10" stroke-linecap="round" stroke-linejoin="round"/>
<path d="M646.216 148.145H604.94L576.762 58.4136H611.849L646.216 148.145Z" fill="#FEFD00" stroke="#7B7B7B" stroke-miterlimit="10" stroke-linecap="round" stroke-linejoin="round"/>
<path d="M625.722 194.255H625.434C614.123 194.255 604.94 185.072 604.94 173.761V147.964H646.216V173.761C646.216 185.09 637.034 194.255 625.722 194.255Z" fill="#FEFD00" stroke="#7B7B7B" stroke-miterlimit="10" stroke-linecap="round" stroke-linejoin="round"/>
<g clip-path="url(#clip0_572_3)">
<path d="M417 339.295C351.84 339.295 299 392.135 299 457.295C299 522.455 351.84 575.295 417 575.295C482.16 575.295 535 522.455 535 457.295C535 392.135 482.16 339.295 417 339.295ZM417 555.282C398.477 555.275 380.335 550.018 364.677 540.121C349.019 530.224 336.487 516.092 328.534 499.363C320.58 482.634 317.53 463.994 319.738 445.602C321.946 427.211 329.321 409.822 341.008 395.451L478.844 533.275C461.391 547.536 439.539 555.305 417 555.282ZM492.992 519.151L355.156 381.315C373.978 366.091 397.768 358.372 421.942 359.646C446.116 360.92 468.964 371.096 486.081 388.214C503.199 405.331 513.375 428.178 514.649 452.353C515.923 476.527 508.204 500.317 492.98 519.139" fill="#7B7B7B"/>
</g>
<defs>
<clipPath id="clip0_572_3">
<rect width="236" height="236" fill="white" transform="translate(299 339.295)"/>
</clipPath>
</defs>
</svg>
