<svg width="19" height="21" viewBox="0 0 19 21" fill="none" xmlns="http://www.w3.org/2000/svg">
<path d="M15.3917 20.16C14.2484 21.2683 13 21.0933 11.7984 20.5683C10.5267 20.0317 9.36003 20.0083 8.01836 20.5683C6.33836 21.2917 5.4517 21.0817 4.44836 20.16C-1.24497 14.2917 -0.404971 5.355 6.05836 5.02833C7.63336 5.11 8.73003 5.89167 9.6517 5.96167C11.0284 5.68167 12.3467 4.87667 13.8167 4.98167C15.5784 5.12167 16.9084 5.82167 17.7834 7.08167C14.1434 9.26333 15.0067 14.0583 18.3434 15.4C17.6784 17.15 16.815 18.8883 15.38 20.1717L15.3917 20.16ZM9.53503 4.95833C9.36003 2.35667 11.4717 0.21 13.8984 0C14.2367 3.01 11.1684 5.25 9.53503 4.95833Z" fill="black"/>
</svg>
