<?xml version="1.0" encoding="UTF-8"?>
<!DOCTYPE svg PUBLIC "-//W3C//DTD SVG 1.1//EN" "http://www.w3.org/Graphics/SVG/1.1/DTD/svg11.dtd">
<!-- Creator: CorelDRAW 2020 (64-Bit Evaluation Version) -->
<svg xmlns="http://www.w3.org/2000/svg" xml:space="preserve" width="6.53413in" height="1.1966in" version="1.1" style="shape-rendering:geometricPrecision; text-rendering:geometricPrecision; image-rendering:optimizeQuality; fill-rule:evenodd; clip-rule:evenodd"
viewBox="0 0 859.63 157.42"
 xmlns:xlink="http://www.w3.org/1999/xlink"
 xmlns:xodm="http://www.corel.com/coreldraw/odm/2003">
 <defs>
  <style type="text/css">
   <![CDATA[
    .fil1 {fill:black}
    .fil2 {fill:#FEFD00}
    .fil0 {fill:black;fill-rule:nonzero}
   ]]>
  </style>
 </defs>
 <g id="Layer_x0020_1">
  <metadata id="CorelCorpID_0Corel-Layer"/>
  <path class="fil0" d="M263.98 20.45c-18.77,0 -33.79,11.11 -33.79,28.99 0,15.32 11.41,22.83 26.88,28.84l6.31 2.4c11.56,4.51 16.82,8.11 16.82,15.92 0,10.21 -10.06,13.07 -17.42,13.07 -5.71,0 -12.77,-2.1 -18.02,-8.71 -2.1,-2.85 -5.11,-5.71 -9.61,-5.71 -5.56,0 -8.26,4.36 -8.26,8.56 0,4.51 2.7,7.96 4.21,9.76 7.36,9.31 19.83,14.12 31.69,14.12 17.42,0 38,-10.36 38,-31.09 0,-14.42 -9.46,-22.98 -32.89,-31.84l-5.86 -2.25c-9.01,-3.45 -11.71,-7.96 -11.71,-12.92 0,-6.61 5.26,-11.26 14.42,-11.26 6.61,0 10.21,2.4 14.42,6.76 1.95,2.1 4.96,4.06 8.11,4.06 4.81,0 8.41,-3.6 8.41,-8.11 0,-3 -1.5,-5.71 -4.36,-9.01 -6.01,-6.61 -14.12,-11.56 -27.33,-11.56z"/>
  <path id="1" class="fil0" d="M357.99 47.64c-10.66,0 -19.22,5.71 -22.23,12.77l0 -2.55c0,-5.26 -4.51,-9.76 -9.91,-9.76 -5.26,0 -10.06,4.51 -10.06,9.76l0 88.61c0,5.41 4.51,9.76 9.91,9.76 5.26,0 9.91,-4.36 9.91,-9.76l0 -27.03c0.15,-0.45 0.15,-1.05 0.15,-1.65l0 -2.85c1.2,4.66 9.16,12.77 22.23,12.77 16.52,0 36.35,-12.77 36.35,-40.1 0,-26.73 -19.97,-39.95 -36.35,-39.95zm-3.6 63.08c-8.41,0 -19.52,-6.16 -19.52,-23.13 0,-16.97 11.11,-23.13 19.52,-23.13 9.91,0 20.28,7.81 20.28,23.13 0,15.47 -10.36,23.13 -20.28,23.13z"/>
  <path id="2" class="fil0" d="M445.25 47.64c-17.27,0 -40.1,13.37 -40.1,40.1 0,26.88 22.83,39.95 40.1,39.95 17.12,0 40.1,-13.07 40.1,-39.95 0,-26.73 -22.98,-40.1 -40.1,-40.1zm0 17.12c10.51,0 20.58,8.41 20.58,22.98 0,14.42 -10.06,22.83 -20.58,22.83 -10.66,0 -20.58,-8.41 -20.58,-22.83 0,-14.57 9.91,-22.98 20.58,-22.98z"/>
  <path id="3" class="fil0" d="M535.37 109.81c-1.65,0 -4.06,0.6 -5.71,0.6 -3.3,0 -4.81,-2.25 -4.81,-6.61l0 -39.8 9.91 0c4.96,0 7.96,-3.15 7.96,-7.66 0,-4.66 -3,-7.81 -7.96,-7.81l-9.91 0 0 -10.21c0,-5.41 -4.36,-9.91 -9.76,-9.91 -5.41,0 -9.91,4.51 -9.91,9.91l0 10.21 -4.36 0c-4.81,0 -7.96,3.15 -7.96,7.81 0,4.51 3.15,7.66 7.96,7.66l4.36 0 0 39.2c0,20.88 10.36,24.18 20.58,24.18 10.21,0 16.97,-3.6 16.97,-10.51 0,-4.66 -2.85,-7.36 -7.36,-7.06z"/>
  <path id="4" class="fil0" d="M575.92 117.62l0 -88.46c0,-5.26 -4.51,-9.76 -9.76,-9.76 -5.41,0 -9.91,4.51 -9.91,9.76l0 88.46c0,5.41 4.51,9.76 9.91,9.76 5.26,0 9.76,-4.36 9.76,-9.76z"/>
  <path id="5" class="fil0" d="M604 37.42c5.26,0 9.91,-4.51 9.91,-9.76 0,-5.26 -4.66,-9.76 -9.91,-9.76 -5.41,0 -10.06,4.51 -10.06,9.76 0,5.26 4.66,9.76 10.06,9.76zm0 10.66c-5.41,0 -9.91,4.51 -9.91,9.91l0 59.47c0,5.56 4.51,10.06 9.91,10.06 5.26,0 9.76,-4.51 9.76,-10.06l0 -59.47c0,-5.41 -4.51,-9.91 -9.76,-9.91z"/>
  <path id="6" class="fil0" d="M707.48 57.85c0,-5.26 -4.81,-9.76 -10.06,-9.76 -5.41,0 -9.91,4.51 -9.91,9.76l0 2.55c-3,-7.06 -11.56,-12.77 -22.23,-12.77 -16.37,0 -36.35,13.22 -36.35,39.95 0,27.33 19.82,40.1 36.35,40.1 13.07,0 21.03,-8.11 22.23,-12.77l0 10.21c0,8.86 -6.76,15.32 -18.92,15.32 -6.76,0 -11.86,-1.8 -14.87,-2.55 -1.95,-0.6 -3.15,-0.75 -4.06,-0.75 -4.21,0 -7.81,3.3 -7.81,7.81 0,3.6 2.25,6.61 6.46,8.41 3.3,1.5 10.81,4.06 20.12,4.06 15.92,0 38.75,-7.81 38.75,-32.29l0 -5.11c0.15,-0.75 0.3,-1.5 0.3,-2.25l0 -59.93zm-38.6 52.87c-9.91,0 -20.28,-7.66 -20.28,-23.13 0,-15.32 10.36,-23.13 20.28,-23.13 8.41,0 19.52,6.16 19.52,23.13 0,16.97 -11.11,23.13 -19.52,23.13z"/>
  <path id="7" class="fil0" d="M770.71 47.79c-16.22,0 -25.08,12.32 -25.68,17.72l0 -36.35c0,-5.26 -4.51,-9.76 -9.76,-9.76 -5.41,0 -9.91,4.51 -9.91,9.76l0 88.46c0,5.41 4.51,9.76 9.91,9.76 5.26,0 9.76,-4.36 9.76,-9.76l0 -36.2c0.6,-4.21 5.11,-16.82 18.62,-16.82 8.86,0 15.92,5.56 15.92,19.07l0 33.94c0,5.41 4.51,9.76 9.76,9.76 5.41,0 9.91,-4.36 9.91,-9.76l0 -33.94c0,-25.98 -13.37,-35.9 -28.54,-35.9z"/>
  <path id="8" class="fil0" d="M852.27 109.81c-1.65,0 -4.06,0.6 -5.71,0.6 -3.3,0 -4.81,-2.25 -4.81,-6.61l0 -39.8 9.91 0c4.96,0 7.96,-3.15 7.96,-7.66 0,-4.66 -3,-7.81 -7.96,-7.81l-9.91 0 0 -10.21c0,-5.41 -4.36,-9.91 -9.76,-9.91 -5.41,0 -9.91,4.51 -9.91,9.91l0 10.21 -4.36 0c-4.81,0 -7.96,3.15 -7.96,7.81 0,4.51 3.15,7.66 7.96,7.66l4.36 0 0 39.2c0,20.88 10.36,24.18 20.58,24.18 10.21,0 16.97,-3.6 16.97,-10.51 0,-4.66 -2.85,-7.36 -7.36,-7.06z"/>
  <g id="_2635725195456">
   <circle class="fil1" cx="83.9" cy="67.56" r="67.56"/>
   <circle class="fil2" cx="67.56" cy="67.56" r="67.56"/>
  </g>
 </g>
</svg>
