<?xml version="1.0" encoding="UTF-8"?>
<!DOCTYPE svg PUBLIC "-//W3C//DTD SVG 1.1//EN" "http://www.w3.org/Graphics/SVG/1.1/DTD/svg11.dtd">
<!-- Creator: CorelDRAW 2020 (64-Bit Evaluation Version) -->
<svg xmlns="http://www.w3.org/2000/svg" xml:space="preserve" width="4.84964in" height="1.06055in" version="1.1" style="shape-rendering:geometricPrecision; text-rendering:geometricPrecision; image-rendering:optimizeQuality; fill-rule:evenodd; clip-rule:evenodd"
viewBox="0 0 272.08 59.5"
 xmlns:xlink="http://www.w3.org/1999/xlink"
 xmlns:xodm="http://www.corel.com/coreldraw/odm/2003">
 <defs>
  <style type="text/css">
   <![CDATA[
    .fil1 {fill:black}
    .fil2 {fill:#FEFD00}
    .fil0 {fill:black;fill-rule:nonzero}
   ]]>
  </style>
 </defs>
 <g id="Layer_x0020_1">
  <metadata id="CorelCorpID_0Corel-Layer"/>
  <g id="_2636094947952">
   <path class="fil0" d="M15.82 0c-8.01,0 -14.41,4.74 -14.41,12.36 0,6.53 4.87,9.74 11.46,12.3l2.69 1.02c4.93,1.92 7.17,3.46 7.17,6.79 0,4.36 -4.29,5.57 -7.43,5.57 -2.43,0 -5.44,-0.9 -7.69,-3.71 -0.9,-1.22 -2.18,-2.43 -4.1,-2.43 -2.37,0 -3.52,1.86 -3.52,3.65 0,1.92 1.15,3.39 1.79,4.16 3.14,3.97 8.45,6.02 13.51,6.02 7.43,0 16.2,-4.42 16.2,-13.26 0,-6.15 -4.04,-9.8 -14.03,-13.58l-2.5 -0.96c-3.84,-1.47 -5,-3.39 -5,-5.51 0,-2.82 2.24,-4.8 6.15,-4.8 2.82,0 4.36,1.02 6.15,2.88 0.83,0.9 2.11,1.73 3.46,1.73 2.05,0 3.59,-1.54 3.59,-3.46 0,-1.28 -0.64,-2.43 -1.86,-3.84 -2.56,-2.82 -6.02,-4.93 -11.66,-4.93z"/>
   <path id="1" class="fil0" d="M55.91 11.59c-4.55,0 -8.2,2.43 -9.48,5.44l0 -1.09c0,-2.24 -1.92,-4.16 -4.23,-4.16 -2.24,0 -4.29,1.92 -4.29,4.16l0 37.79c0,2.31 1.92,4.16 4.23,4.16 2.24,0 4.23,-1.86 4.23,-4.16l0 -11.53c0.06,-0.19 0.06,-0.45 0.06,-0.7l0 -1.22c0.51,1.99 3.91,5.44 9.48,5.44 7.05,0 15.5,-5.44 15.5,-17.1 0,-11.4 -8.52,-17.04 -15.5,-17.04zm-1.54 26.9c-3.59,0 -8.33,-2.63 -8.33,-9.86 0,-7.24 4.74,-9.86 8.33,-9.86 4.23,0 8.65,3.33 8.65,9.86 0,6.6 -4.42,9.86 -8.65,9.86z"/>
   <path class="fil0" d="M133.8 39.2c-0.7,0 -1.73,0.26 -2.43,0.26 -1.41,0 -2.05,-0.96 -2.05,-2.82l0 -16.97 4.23 0c2.11,0 3.39,-1.34 3.39,-3.27 0,-1.99 -1.28,-3.33 -3.39,-3.33l-4.23 0 0 -4.36c0,-2.31 -1.86,-4.23 -4.16,-4.23 -2.31,0 -4.23,1.92 -4.23,4.23l0 4.36 -1.86 0c-2.05,0 -3.39,1.34 -3.39,3.33 0,1.92 1.35,3.27 3.39,3.27l1.86 0 0 16.72c0,8.9 4.42,10.31 8.77,10.31 4.36,0 7.24,-1.54 7.24,-4.48 0,-1.99 -1.22,-3.14 -3.14,-3.01z"/>
   <path id="1" class="fil0" d="M151.09 42.53l0 -37.72c0,-2.24 -1.92,-4.16 -4.16,-4.16 -2.31,0 -4.23,1.92 -4.23,4.16l0 37.72c0,2.31 1.92,4.16 4.23,4.16 2.24,0 4.16,-1.86 4.16,-4.16z"/>
   <path id="2" class="fil0" d="M163.07 8.33c2.24,0 4.23,-1.92 4.23,-4.16 0,-2.24 -1.99,-4.16 -4.23,-4.16 -2.31,0 -4.29,1.92 -4.29,4.16 0,2.24 1.99,4.16 4.29,4.16zm0 4.55c-2.31,0 -4.23,1.92 -4.23,4.23l0 25.36c0,2.37 1.92,4.29 4.23,4.29 2.24,0 4.16,-1.92 4.16,-4.29l0 -25.36c0,-2.31 -1.92,-4.23 -4.16,-4.23z"/>
   <path id="3" class="fil0" d="M207.2 17.04c0,-2.24 -2.05,-4.16 -4.29,-4.16 -2.31,0 -4.23,1.92 -4.23,4.16l0 1.09c-1.28,-3.01 -4.93,-5.44 -9.48,-5.44 -6.98,0 -15.5,5.64 -15.5,17.04 0,11.66 8.45,17.1 15.5,17.1 5.57,0 8.97,-3.46 9.48,-5.44l0 4.36c0,3.78 -2.88,6.53 -8.07,6.53 -2.88,0 -5.06,-0.77 -6.34,-1.09 -0.83,-0.26 -1.34,-0.32 -1.73,-0.32 -1.79,0 -3.33,1.41 -3.33,3.33 0,1.54 0.96,2.82 2.75,3.59 1.41,0.64 4.61,1.73 8.58,1.73 6.79,0 16.52,-3.33 16.52,-13.77l0 -2.18c0.06,-0.32 0.13,-0.64 0.13,-0.96l0 -25.56zm-16.46 22.54c-4.23,0 -8.65,-3.27 -8.65,-9.86 0,-6.53 4.42,-9.86 8.65,-9.86 3.59,0 8.33,2.63 8.33,9.86 0,7.24 -4.74,9.86 -8.33,9.86z"/>
   <path id="4" class="fil0" d="M234.16 12.75c-6.92,0 -10.7,5.25 -10.95,7.56l0 -15.5c0,-2.24 -1.92,-4.16 -4.16,-4.16 -2.31,0 -4.23,1.92 -4.23,4.16l0 37.72c0,2.31 1.92,4.16 4.23,4.16 2.24,0 4.16,-1.86 4.16,-4.16l0 -15.44c0.26,-1.79 2.18,-7.17 7.94,-7.17 3.78,0 6.79,2.37 6.79,8.13l0 14.47c0,2.31 1.92,4.16 4.16,4.16 2.31,0 4.23,-1.86 4.23,-4.16l0 -14.47c0,-11.08 -5.7,-15.31 -12.17,-15.31z"/>
   <path id="5" class="fil0" d="M268.94 39.2c-0.7,0 -1.73,0.26 -2.43,0.26 -1.41,0 -2.05,-0.96 -2.05,-2.82l0 -16.97 4.23 0c2.11,0 3.39,-1.34 3.39,-3.27 0,-1.99 -1.28,-3.33 -3.39,-3.33l-4.23 0 0 -4.36c0,-2.31 -1.86,-4.23 -4.16,-4.23 -2.31,0 -4.23,1.92 -4.23,4.23l0 4.36 -1.86 0c-2.05,0 -3.39,1.34 -3.39,3.33 0,1.92 1.35,3.27 3.39,3.27l1.86 0 0 16.72c0,8.9 4.42,10.31 8.77,10.31 4.36,0 7.24,-1.54 7.24,-4.48 0,-1.99 -1.22,-3.14 -3.14,-3.01z"/>
   <g>
    <circle class="fil1" cx="95.97" cy="29.75" r="16.55"/>
    <circle class="fil2" cx="91.97" cy="29.75" r="16.55"/>
   </g>
  </g>
 </g>
</svg>
