<svg width="20" height="21" viewBox="0 0 20 21" fill="none" xmlns="http://www.w3.org/2000/svg">
<g clip-path="url(#clip0_624_1047)">
<path d="M11.4034 10.0347L3.0293 18.8082C3.12334 19.1414 3.29233 19.4488 3.52336 19.7067C3.75438 19.9647 4.04133 20.1664 4.36226 20.2964C4.68319 20.4265 5.0296 20.4814 5.37502 20.4571C5.72044 20.4327 6.05572 20.3297 6.35523 20.1559L15.7776 14.7896L11.4034 10.0347Z" fill="#EA4335"/>
<path d="M19.8709 8.54332L15.7964 6.20947L11.21 10.2342L15.815 14.777L19.8586 12.4681C20.2168 12.2806 20.5168 11.9985 20.7262 11.6526C20.9355 11.3067 21.0462 10.91 21.0462 10.5057C21.0462 10.1013 20.9355 9.70471 20.7262 9.35878C20.5168 9.01285 20.2168 8.73082 19.8586 8.54325L19.8709 8.54332Z" fill="#FBBC04"/>
<path d="M3.02904 2.15991C2.97842 2.34704 2.95322 2.54013 2.95412 2.73398V18.2341C2.95465 18.4279 2.97982 18.6208 3.02904 18.8083L11.6902 10.2594L3.02904 2.15991Z" fill="#4285F4"/>
<path d="M11.4658 10.484L15.7964 6.20962L6.38647 0.818238C6.03243 0.610893 5.62976 0.501087 5.21947 0.500004C4.20131 0.498026 3.30619 1.17379 3.0293 2.15364L11.4658 10.484Z" fill="#34A853"/>
</g>
<defs>
<clipPath id="clip0_624_1047">
<rect width="18.0919" height="20" fill="white" transform="translate(0.954102 0.5)"/>
</clipPath>
</defs>
</svg>
