<svg width="108" height="21" viewBox="0 0 108 21" fill="none" xmlns="http://www.w3.org/2000/svg">
<path d="M31.4769 2.99292C29.0649 2.99292 27.1354 4.4213 27.1354 6.71824C27.1354 8.687 28.6018 9.65227 30.5893 10.4243L31.3998 10.7332C32.8855 11.3123 33.5609 11.7756 33.5609 12.7792C33.5609 14.0918 32.2682 14.4585 31.3225 14.4585C30.5893 14.4585 29.6824 14.1883 29.0071 13.3389C28.737 12.9721 28.3511 12.6054 27.7722 12.6054C27.0583 12.6054 26.7109 13.1652 26.7109 13.7056C26.7109 14.2847 27.0583 14.7285 27.2511 14.9602C28.1966 16.1569 29.7981 16.7746 31.3225 16.7746C33.5609 16.7746 36.2044 15.4427 36.2044 12.7791C36.2044 10.9261 34.9888 9.82575 31.9787 8.687L31.2262 8.39754C30.0684 7.95354 29.7212 7.37444 29.7212 6.73752C29.7212 5.88823 30.3966 5.28986 31.5735 5.28986C32.4225 5.28986 32.8857 5.5986 33.4259 6.15842C33.6767 6.42861 34.0626 6.67969 34.4679 6.67969C35.0853 6.67969 35.5484 6.21642 35.5484 5.63732C35.5484 5.25131 35.3554 4.90386 34.9888 4.47913C34.2169 3.62984 33.175 2.99292 31.477 2.99292H31.4769Z" fill="white"/>
<path d="M43.557 6.48682C42.1869 6.48682 41.0871 7.22028 40.7012 8.12756V7.79938C40.7012 7.12374 40.1223 6.54481 39.4276 6.54481C38.7522 6.54481 38.1348 7.1239 38.1348 7.79938V19.1877C38.1348 19.8826 38.7137 20.4423 39.4083 20.4423C40.0838 20.4423 40.6819 19.8825 40.6819 19.1877V15.7133C40.7012 15.6553 40.7012 15.5782 40.7012 15.5009V15.1342C40.8555 15.7326 41.8783 16.7749 43.557 16.7749C45.6796 16.7749 48.2266 15.1342 48.2266 11.6212C48.2266 8.18555 45.6603 6.48682 43.557 6.48682ZM43.0939 14.5937C42.0133 14.5937 40.5854 13.8024 40.5854 11.6211C40.5854 9.43995 42.0133 8.64849 43.0939 8.64849C44.3675 8.64849 45.6989 9.65232 45.6989 11.6211C45.6989 13.6093 44.3675 14.5937 43.0939 14.5937Z" fill="white"/>
<path d="M54.7672 6.48682C52.5483 6.48682 49.6152 8.20466 49.6152 11.6405C49.6152 15.0956 52.5481 16.7749 54.7672 16.7749C56.967 16.7749 59.9192 15.0956 59.9192 11.6405C59.9192 8.20483 56.9669 6.48682 54.7672 6.48682ZM54.7672 8.68721C56.1179 8.68721 57.4107 9.76813 57.4107 11.6405C57.4107 13.4935 56.1179 14.5744 54.7672 14.5744C53.3971 14.5744 52.1237 13.4935 52.1237 11.6405C52.1237 9.76813 53.3971 8.68721 54.7672 8.68721Z" fill="white"/>
<path d="M66.3436 14.4781C66.1313 14.4781 65.8227 14.5552 65.6104 14.5552C65.1858 14.5552 64.9929 14.2657 64.9929 13.7059V8.59072H66.2663C66.9031 8.59072 67.2891 8.18544 67.2891 7.60634C67.2891 7.00797 66.9032 6.60269 66.2663 6.60269H64.9929V5.29013C64.9929 4.59521 64.4333 4.01611 63.7388 4.01611C63.0441 4.01611 62.4652 4.59521 62.4652 5.29013V6.60269H61.9056C61.2881 6.60269 60.8828 7.00797 60.8828 7.60634C60.8828 8.18544 61.2881 8.59072 61.9056 8.59072H62.4652V13.6286C62.4652 16.3117 63.7966 16.7363 65.1087 16.7363C66.4208 16.7363 67.2891 16.273 67.2891 15.3852C67.2891 14.7868 66.9225 14.4393 66.3436 14.4781Z" fill="white"/>
<path d="M71.5551 15.4815V4.11248C71.5551 3.43684 70.9762 2.85791 70.3009 2.85791C69.6062 2.85791 69.0273 3.43701 69.0273 4.11248V15.4815C69.0273 16.1764 69.6062 16.7361 70.3009 16.7361C70.9763 16.7361 71.5551 16.1763 71.5551 15.4815Z" fill="white"/>
<path d="M75.1639 5.17417C75.8394 5.17417 76.4375 4.59508 76.4375 3.91961C76.4375 3.24397 75.8394 2.66504 75.1639 2.66504C74.4693 2.66504 73.8711 3.24413 73.8711 3.91961C73.8711 4.59525 74.4693 5.17417 75.1639 5.17417ZM75.1639 6.54473C74.4693 6.54473 73.8904 7.12383 73.8904 7.81874V15.4623C73.8904 16.1765 74.4693 16.7556 75.1639 16.7556C75.8394 16.7556 76.4181 16.1765 76.4181 15.4623V7.81874C76.4181 7.12383 75.8392 6.54473 75.1639 6.54473Z" fill="white"/>
<path d="M88.459 7.79938C88.459 7.12374 87.8416 6.54481 87.1662 6.54481C86.4715 6.54481 85.8926 7.1239 85.8926 7.79938V8.12756C85.5067 7.22045 84.4069 6.48682 83.0368 6.48682C80.9335 6.48682 78.3672 8.18538 78.3672 11.6212C78.3672 15.1342 80.9142 16.7749 83.0368 16.7749C84.7155 16.7749 85.7381 15.7326 85.8926 15.1342V16.4468C85.8926 17.5855 85.0243 18.4155 83.4614 18.4155C82.5931 18.4155 81.9369 18.1839 81.5511 18.0873C81.3002 18.0101 81.1459 17.9908 81.0301 17.9908C80.4899 17.9908 80.0268 18.4154 80.0268 18.9944C80.0268 19.4577 80.3162 19.8437 80.8566 20.0754C81.281 20.2685 82.2457 20.5965 83.4421 20.5965C85.4874 20.5965 88.4205 19.5928 88.4205 16.4466V15.7904C88.4397 15.694 88.459 15.5975 88.459 15.5009V7.79938ZM83.5001 14.5937C82.2265 14.5937 80.8953 13.6093 80.8953 11.6211C80.8953 9.65232 82.2266 8.64849 83.5001 8.64849C84.5806 8.64849 86.0085 9.43995 86.0085 11.6211C86.0085 13.8022 84.5806 14.5937 83.5001 14.5937Z" fill="white"/>
<path d="M96.5811 6.50596C94.4972 6.50596 93.3587 8.08871 93.2816 8.78363V4.11248C93.2816 3.43684 92.7027 2.85791 92.0275 2.85791C91.3328 2.85791 90.7539 3.43701 90.7539 4.11248V15.4815C90.7539 16.1764 91.3328 16.7361 92.0275 16.7361C92.7029 16.7361 93.2816 16.1763 93.2816 15.4815V10.8297C93.3589 10.2893 93.9376 8.66781 95.6743 8.66781C96.8127 8.66781 97.7196 9.382 97.7196 11.1191V15.4814C97.7196 16.1763 98.2986 16.7359 98.9738 16.7359C99.6685 16.7359 100.247 16.1761 100.247 15.4814V11.1191C100.247 7.77981 98.5301 6.50596 96.5811 6.50596Z" fill="white"/>
<path d="M107.058 14.4778C106.846 14.4778 106.538 14.5549 106.325 14.5549C105.901 14.5549 105.708 14.2654 105.708 13.7056V8.59048H106.981C107.618 8.59048 108.004 8.18519 108.004 7.6061C108.004 7.00773 107.618 6.60244 106.981 6.60244H105.708V5.28988C105.708 4.59497 105.148 4.01587 104.454 4.01587C103.759 4.01587 103.18 4.59497 103.18 5.28988V6.60244H102.62C102.003 6.60244 101.598 7.00773 101.598 7.6061C101.598 8.18519 102.003 8.59048 102.62 8.59048H103.18V13.6284C103.18 16.3115 104.511 16.736 105.824 16.736C107.136 16.736 108.004 16.2728 108.004 15.3849C108.004 14.7866 107.637 14.4391 107.058 14.4778Z" fill="white"/>
<path d="M10.7809 17.9614C15.5743 17.9614 19.4602 14.0742 19.4602 9.27914C19.4602 4.48408 15.5743 0.596924 10.7809 0.596924C5.98742 0.596924 2.10156 4.48408 2.10156 9.27914C2.10156 14.0742 5.98742 17.9614 10.7809 17.9614Z" fill="white"/>
<path d="M8.68014 17.9626C13.4741 17.9626 17.3603 14.075 17.3603 9.2795C17.3603 4.48398 13.4741 0.596436 8.68014 0.596436C3.88623 0.596436 0 4.48398 0 9.2795C0 14.075 3.88623 17.9626 8.68014 17.9626Z" fill="#FEFD00"/>
</svg>
