<svg width="30" height="30" viewBox="0 0 30 30" fill="none" xmlns="http://www.w3.org/2000/svg">
<path d="M17.0446 12.6683L17.0448 12.6685L17.4824 13.1061L16.6072 13.9813L16.1696 13.5437C14.5251 11.8993 11.6868 11.8992 10.0422 13.5436C10.0422 13.5437 10.0422 13.5437 10.0421 13.5437L7.41501 16.1696L7.41422 16.1704C6.60337 16.9838 6.14805 18.0855 6.14805 19.2341C6.14805 20.3826 6.60337 21.4843 7.41422 22.2977L7.41589 22.2994C8.22961 23.1095 9.33106 23.5643 10.4793 23.5643C11.6275 23.5643 12.7289 23.1095 13.5426 22.2994L13.5436 22.2984L13.9812 21.8608L14.8564 22.736L14.4188 23.1736L14.4185 23.174C13.9017 23.6916 13.2877 24.1019 12.6118 24.3814C11.9358 24.6608 11.2113 24.8039 10.4799 24.8024L10.4775 24.8024C9.74629 24.8037 9.02201 24.6605 8.34628 24.3811C7.67063 24.1016 7.05686 23.6915 6.5402 23.1741C5.49751 22.1279 4.91202 20.7111 4.91202 19.2341C4.91202 17.7571 5.49741 16.3404 6.53994 15.2943C6.5401 15.2941 6.54026 15.294 6.54041 15.2938L9.16684 12.6686L9.16718 12.6683C10.2186 11.6158 11.6161 11.036 13.1059 11.036C14.5957 11.036 15.9932 11.6158 17.0446 12.6683Z" fill="#555555" stroke="black" stroke-width="1.23809"/>
<path d="M16.1697 7.41496L15.7321 7.85256L14.8569 6.97736L15.294 6.54028C15.2941 6.54019 15.2942 6.54009 15.2943 6.54C16.3401 5.49685 17.7569 4.91104 19.2341 4.91104C20.7111 4.91104 22.1277 5.49673 23.1735 6.53967C24.216 7.58579 24.8013 9.00244 24.8013 10.4793C24.8013 11.9564 24.2158 13.3733 23.173 14.4194C23.173 14.4195 23.173 14.4195 23.1729 14.4196L20.5465 17.0447L20.5462 17.0451C19.4947 18.0976 18.0973 18.6773 16.6075 18.6773C15.1177 18.6773 13.7202 18.0976 12.6688 17.0451L12.6685 17.0448L12.2309 16.6072L13.1061 15.732L13.5437 16.1696C15.1882 17.8141 18.0266 17.8142 19.6711 16.1697C19.6711 16.1697 19.6712 16.1697 19.6712 16.1696L22.2983 13.5438L22.2991 13.543C23.11 12.7295 23.5653 11.6278 23.5653 10.4793C23.5653 9.33076 23.11 8.22907 22.2991 7.41564L22.2974 7.41398C21.4837 6.6039 20.3823 6.14911 19.2341 6.14911C18.0859 6.14911 16.9844 6.6039 16.1707 7.41398L16.1697 7.41496Z" fill="#555555" stroke="black" stroke-width="1.23809"/>
</svg>
