<svg width="32" height="33" viewBox="0 0 49 47" fill="none" xmlns="http://www.w3.org/2000/svg">
<path d="M15.3099 21.5859H15.3316M23.9995 21.5859H24.0213M32.6892 21.5859H32.7109M15.0926 38.9652C19.2389 41.0921 24.0084 41.6682 28.5418 40.5897C33.0752 39.5111 37.0743 36.8489 39.8185 33.0827C42.5627 29.3165 43.8715 24.694 43.5091 20.0482C43.1466 15.4024 41.1368 11.0388 37.8417 7.74369C34.5467 4.44862 30.1831 2.43878 25.5372 2.07634C20.8914 1.71391 16.2689 3.02271 12.5027 5.76691C8.73651 8.5111 6.07427 12.5102 4.99574 17.0436C3.9172 21.577 4.4933 26.3466 6.62022 30.4928L2.27539 43.31L15.0926 38.9652Z" stroke="black" stroke-width="3" stroke-linecap="round" stroke-linejoin="round"/>
</svg>
