<svg width="29" height="29" viewBox="0 0 29 29" fill="none" xmlns="http://www.w3.org/2000/svg">
<g clip-path="url(#clip0_489_1562)">
<path d="M14.5 0C10.6552 0 6.96453 1.52862 4.24805 4.24691C1.52876 6.96629 0.000753252 10.6543 0 14.5C0 18.3441 1.5293 22.0348 4.24805 24.7531C6.96453 27.4714 10.6552 29 14.5 29C18.3448 29 22.0355 27.4714 24.752 24.7531C27.4707 22.0348 29 18.3441 29 14.5C29 10.6559 27.4707 6.96521 24.752 4.24691C22.0355 1.52862 18.3448 0 14.5 0Z" fill="url(#paint0_linear_489_1562)"/>
<path d="M6.56327 14.3468C10.7909 12.5053 13.6094 11.2912 15.0186 10.7046C19.0469 9.02964 19.8829 8.73873 20.4289 8.72888C20.549 8.72695 20.8163 8.75663 20.9908 8.89766C21.1358 9.01661 21.1766 9.17747 21.1969 9.29041C21.2151 9.40324 21.24 9.66039 21.2196 9.86112C21.0021 12.1539 20.0573 17.7179 19.577 20.2859C19.3754 21.3725 18.9744 21.7368 18.5869 21.7724C17.7441 21.8499 17.1052 21.216 16.2896 20.6815C15.0141 19.8448 14.2936 19.3242 13.0543 18.5079C11.6224 17.5645 12.5513 17.0459 13.3669 16.1985C13.5799 15.9767 17.291 12.6021 17.3612 12.296C17.3703 12.2577 17.3794 12.115 17.2933 12.0397C17.2094 11.9643 17.0848 11.9901 16.9942 12.0105C16.8651 12.0395 14.8283 13.3871 10.877 16.0531C10.2993 16.4505 9.77593 16.6442 9.30468 16.634C8.78812 16.6229 7.79124 16.3413 7.05038 16.1007C6.14413 15.8054 5.4214 15.6493 5.48484 15.148C5.51656 14.887 5.87679 14.6198 6.56327 14.3468Z" fill="white"/>
</g>
<defs>
<linearGradient id="paint0_linear_489_1562" x1="1450" y1="0" x2="1450" y2="2900" gradientUnits="userSpaceOnUse">
<stop stop-color="#2AABEE"/>
<stop offset="1" stop-color="#229ED9"/>
</linearGradient>
<clipPath id="clip0_489_1562">
<rect width="29" height="29" fill="white"/>
</clipPath>
</defs>
</svg>
