<svg width="25" height="24" viewBox="0 0 25 24" fill="none" xmlns="http://www.w3.org/2000/svg">
<mask id="mask0_317_1148" style="mask-type:luminance" maskUnits="userSpaceOnUse" x="0" y="0" width="25" height="24">
<path d="M0.5 0H24.5V24H0.5V0Z" fill="white"/>
</mask>
<g mask="url(#mask0_317_1148)">
<path d="M10.6439 14.5844L4.26578 21.8937H2.8566L10.2162 13.4572L10.676 12.9301L10.2518 12.3739L2.23177 1.85886H7.66709L12.6487 8.46575L13.2845 9.30886L13.9789 8.5134L19.7895 1.85714H21.1949L14.3948 9.64897L13.9372 10.1733L14.3563 10.7288L22.7796 21.8937H17.5183L11.971 14.6279L11.334 13.7935L10.6439 14.5844ZM17.4243 21.0628L17.6815 21.4H18.1057H20.1457H21.8662L20.8299 20.0266L7.66424 2.57689L7.40703 2.236H6.98H4.79257H3.0605L4.11111 3.61306L17.4243 21.0628Z" stroke="white" stroke-width="1.71429"/>
</g>
</svg>
